<?xml version="1.0" standalone="no"?>
<!DOCTYPE svg PUBLIC "-//W3C//DTD SVG 20010904//EN"
 "http://www.w3.org/TR/2001/REC-SVG-20010904/DTD/svg10.dtd">
<svg version="1.0" xmlns="http://www.w3.org/2000/svg"
 width="1024.000000pt" height="1024.000000pt" viewBox="0 0 1024.000000 1024.000000"
 preserveAspectRatio="xMidYMid meet">

<g transform="translate(0.000000,1024.000000) scale(0.100000,-0.100000)"
fill="#EAE0D5" stroke="none">
<path d="M4795 9741 l-50 -6 80 -14 c167 -29 400 -122 546 -216 41 -26 104
-77 141 -113 66 -64 146 -167 136 -177 -2 -3 -22 9 -44 25 -92 67 -277 152
-458 211 -328 106 -722 104 -1105 -6 -152 -43 -265 -88 -484 -192 -347 -163
-579 -235 -817 -252 l-85 -6 45 -43 c64 -61 178 -136 249 -163 34 -13 61 -27
61 -30 0 -10 -190 -96 -265 -119 -99 -31 -282 -38 -394 -16 -90 18 -191 56
-301 111 l-70 35 0 -36 c0 -47 52 -200 95 -283 79 -149 232 -307 356 -368 32
-15 58 -31 58 -35 1 -3 -27 -27 -62 -51 -88 -63 -245 -231 -318 -340 -148
-221 -246 -485 -294 -792 -19 -119 -31 -420 -20 -490 l7 -50 13 35 c18 50 62
137 98 190 31 47 166 190 179 190 5 0 8 -35 8 -77 1 -240 68 -497 190 -730
l60 -115 -45 -43 c-56 -55 -119 -151 -139 -213 -67 -204 -33 -504 89 -804 102
-248 256 -458 411 -560 l63 -41 5 -71 c3 -39 10 -179 16 -311 13 -256 32 -490
42 -500 3 -3 32 28 64 69 33 42 61 76 64 76 3 0 11 -47 18 -104 41 -344 170
-650 352 -835 l59 -60 -67 -39 c-148 -88 -335 -254 -413 -368 -135 -197 -144
-431 -21 -610 171 -251 565 -461 1317 -702 385 -123 837 -252 886 -252 38 0
371 88 642 169 464 140 756 250 1019 383 218 111 324 183 444 302 108 109 152
180 175 287 15 68 5 181 -21 256 -68 195 -290 415 -552 550 l-76 39 43 40 c96
92 221 309 280 489 35 106 75 281 75 328 0 20 3 37 7 37 4 0 35 -27 69 -61
l61 -61 6 39 c17 109 40 433 53 745 l7 168 56 31 c74 42 234 204 300 304 106
162 197 378 242 573 25 109 35 307 20 385 -15 80 -57 171 -108 234 l-43 52 44
63 c101 145 196 378 240 584 31 152 44 260 52 457 4 86 9 157 12 157 6 0 105
-82 114 -95 26 -37 8 94 -42 302 -124 514 -446 973 -812 1159 -38 19 -68 38
-68 42 0 28 230 221 315 264 l39 20 -37 19 c-106 55 -286 67 -412 29 -69 -21
-188 -81 -200 -100 -13 -21 -24 -8 -30 38 -13 96 -38 209 -65 293 -53 161
-158 346 -243 428 l-36 34 6 -144 c3 -79 2 -215 -2 -301 l-7 -158 -43 85 c-93
181 -243 359 -404 480 -240 179 -613 312 -971 344 -120 11 -319 12 -405 2z
m-779 -2042 c-85 -158 -132 -399 -123 -634 8 -180 33 -298 88 -411 l43 -89 3
50 c11 184 45 336 108 471 125 270 340 475 558 530 82 22 184 14 269 -20 35
-14 68 -26 72 -26 4 0 67 22 139 49 233 86 419 121 652 121 223 0 374 -30 530
-104 234 -111 403 -279 529 -525 63 -124 96 -214 130 -349 49 -195 78 -411 91
-672 3 -63 8 -139 11 -167 4 -40 2 -53 -8 -53 -7 0 -83 8 -168 17 -199 21
-870 24 -1060 5 -313 -33 -462 -68 -559 -134 -44 -29 -47 -30 -100 -19 -99 21
-325 25 -434 8 l-98 -15 -87 44 c-165 85 -410 122 -862 131 -363 7 -676 -8
-884 -43 l-39 -7 7 186 c26 697 134 1082 383 1365 l38 44 0 -209 c0 -183 3
-219 23 -298 34 -135 150 -363 121 -237 -14 60 -10 241 6 312 69 293 290 565
580 714 38 19 71 34 72 32 2 -2 -12 -32 -31 -67z m-33 -1979 c279 -19 462 -63
511 -121 36 -42 41 -85 27 -231 -27 -277 -76 -423 -175 -524 -75 -75 -132 -99
-295 -120 -154 -21 -536 -15 -660 10 -158 32 -218 78 -286 221 -66 137 -101
289 -112 481 -7 130 4 173 51 209 39 30 158 61 276 74 120 12 488 13 663 1z
m2662 0 c208 -19 305 -54 340 -125 17 -33 20 -58 19 -150 -4 -259 -81 -512
-188 -619 -87 -88 -210 -111 -581 -111 -379 0 -499 26 -593 129 -109 120 -182
371 -182 630 0 103 18 133 99 170 65 29 256 62 436 75 163 12 524 12 650 1z
m904 -165 c56 -51 83 -121 89 -231 8 -149 -32 -312 -124 -511 -46 -98 -146
-257 -205 -323 l-31 -35 6 244 c3 134 6 350 6 480 l0 236 58 68 c99 116 137
130 201 72z m-4965 -55 c25 -39 62 -87 80 -108 l34 -37 11 -225 c7 -124 16
-308 21 -410 6 -102 10 -201 10 -219 l0 -34 -27 39 c-89 128 -115 172 -161
265 -58 119 -112 269 -137 382 -22 100 -18 264 8 318 23 46 74 99 97 99 10 0
36 -28 64 -70z m2559 -6 c26 -9 54 -26 62 -38 8 -12 21 -69 29 -126 19 -134
30 -186 63 -285 80 -245 183 -386 330 -451 154 -69 533 -101 869 -74 332 27
453 86 544 264 18 36 35 66 37 66 9 0 -11 -145 -38 -272 -48 -230 -113 -394
-225 -564 -74 -112 -272 -313 -374 -379 -76 -50 -189 -105 -213 -105 -8 0 -40
33 -71 74 -125 163 -319 318 -486 387 -120 51 -198 69 -310 76 -115 6 -197 -8
-299 -53 -38 -17 -57 -21 -66 -14 -7 6 -46 23 -86 38 -69 25 -84 27 -224 26
-135 -1 -158 -3 -235 -28 -249 -81 -455 -231 -595 -431 -27 -38 -51 -73 -55
-78 -8 -9 -112 33 -181 73 -135 80 -312 253 -405 395 -140 215 -232 488 -250
741 l-6 89 27 -52 c38 -75 110 -147 176 -178 246 -112 962 -113 1203 -2 196
92 329 335 387 712 11 72 25 140 31 152 11 21 63 47 118 57 47 9 195 -3 243
-20z m247 -2019 c153 -21 277 -56 350 -98 42 -25 62 -45 85 -87 27 -50 30 -64
30 -145 0 -78 -4 -98 -29 -152 -67 -145 -243 -234 -344 -173 -41 25 -62 61
-102 170 -17 49 -42 99 -56 113 l-24 25 -292 0 c-342 0 -318 9 -363 -129 -54
-163 -86 -199 -180 -199 -175 0 -335 224 -296 413 30 142 154 220 416 261 146
23 166 24 435 21 158 -2 289 -9 370 -20z m960 -1562 c0 -217 -16 -335 -57
-420 -104 -213 -356 -413 -793 -631 -118 -60 -271 -132 -339 -161 l-125 -52
-45 17 c-218 82 -583 254 -734 346 -270 164 -450 343 -518 515 -21 53 -23 77
-27 307 l-4 248 81 -70 c420 -363 1002 -536 1506 -447 339 59 743 254 985 474
30 28 58 50 63 51 4 0 7 -80 7 -177z"/>
<path d="M3345 6287 c-79 -20 -175 -70 -229 -118 -48 -43 -126 -150 -126 -174
0 -8 27 -6 98 9 86 18 132 20 412 20 332 0 510 -15 765 -65 159 -32 231 -36
255 -14 48 43 5 141 -80 185 -66 34 -333 97 -593 141 -154 26 -430 34 -502 16z"/>
<path d="M6260 6285 c-229 -31 -610 -110 -707 -146 -29 -12 -67 -32 -83 -46
-38 -32 -56 -93 -38 -131 19 -39 57 -39 319 2 371 58 500 69 784 63 192 -4
271 -10 343 -25 50 -10 92 -15 92 -10 0 21 -75 121 -126 167 -64 59 -176 117
-253 131 -71 13 -213 11 -331 -5z"/>
</g>
</svg>
